<svg xmlns="http://www.w3.org/2000/svg" width="456" height="296" viewBox="0 0 456 296">
	<g>
		<path class="st0" d="M456.4,5.6c0,95.3,0,190.5,0,285.7c-19.2-0.1-38.4-0.1-57.6-0.2c-31.6-59.4-63.2-118.8-94.8-178.2
		c0.9,59.4,1.7,118.9,2.6,178.3c-18.9,0-37.8,0-56.7,0c-0.1-95.2-0.1-190.4-0.2-285.6c19.3,0,38.6,0,57.9,0
		c31.9,61.1,63.8,122.1,95.6,183.2c-0.7-61-1.3-122.1-2-183.1L456.4,5.6z"/>
		<g>
			<path class="st0" d="M214.8,148.7c-0.3,34-1.5,56.7-3.6,68.2c-2.3,11.5-5.7,20.7-10.3,27.8c-7.4,13.4-19.2,25.2-35.4,35.6
			c-15.9,10.5-35.7,15.8-59.3,15.9c-23.9-0.5-43.8-6.1-59.7-16.9c-15.7-10.7-27.1-22.8-34-36.3c-5-7.1-8.5-16.4-10.3-27.9
			C0.5,203.6-0.2,180.9,0,147c0.3-33.4,1.3-55.9,3.2-67.6c2-11.7,5.6-21.1,10.7-28.1C21,37.9,32.5,26.1,48.4,15.9
			c16-10.6,36-16,60-16.3c23.7,0.7,43.3,6.5,59.1,17.3c16,10.4,27.6,22.4,34.8,35.9c2.2,4.4,4.1,8.6,5.9,12.7c1.6,4.1,3,9.4,4,15.6
			C214.2,92.8,215.1,115.3,214.8,148.7z M162.4,148.3c0,0,0.2-20.2-0.9-37.2c0-0.3-0.2-3.5-0.9-7.4c-0.4-2.5-0.8-3.9-1.1-4.8
			c-0.3-0.9-0.7-2-1-2.9c-0.5-1.4-0.9-2.4-1-2.8c-0.9-2.3-2.1-5.5-4.3-9.1c-0.4-0.7-1.6-2.7-3.5-5.2c-1-1.3-2.2-2.7-3.7-4.3
			c-3.3-3.5-6.5-6.9-11.2-10c-1.1-0.7-4.3-2.8-8.9-4.6c-8.3-3.3-15.6-3.5-18.7-3.5c-3.5,0-11.8,0.5-21.1,4.8
			c-8.6,4-13.8,9.3-15.3,10.8c-3.2,3.4-5.3,6.5-6.9,8.9c-1.5,2.3-4.4,6.7-6.7,12.7c-2.7,6.9-3.4,12.7-3.8,16.3
			c-1.5,14-1.3,25.7-1.4,37.9c-0.1,17.8-0.8,28.9,0.8,44.3c0.4,3.5,1.1,9.1,3.6,15.9c0.8,2.2,3.3,8.5,8.6,15.5
			c3,4,8.2,10.7,17.5,15.7c2.3,1.2,10.8,5.6,22.7,5.9c11.7,0.3,20.3-3.5,22.6-4.7c6.1-2.9,10.2-6.5,12.4-8.4
			c2.4-2.1,6.7-6.2,10.7-12.4c5.5-8.5,7.5-16.1,8-18.1c0.8-3.2,1.1-5.6,1.3-7.1C162.2,179.5,162.3,159.7,162.4,148.3z"/>
		</g>
	</g>
</svg>
