<svg xmlns="http://www.w3.org/2000/svg" width="713.349mm" height="591.847mm" viewBox="0 0 2022.092 1677.677"><defs><style>.a{fill:#fff;}</style></defs><title>b_weiss_final</title><path class="a" d="M76.989,125.5h8.9v17.84l16.729-17.84H114.31L96.542,143.3,115.221,168.8H103.588l-13.34-18.9-4.358,4.419V168.8h-8.9Z" transform="translate(-76.989 -125.496)"/><path class="a" d="M332.975,125.5h8.9v17.84L358.6,125.5H370.3L352.527,143.3l18.68,25.492H359.574l-13.341-18.9-4.358,4.419V168.8h-8.9Z" transform="translate(-76.989 -125.496)"/><path class="a" d="M586.621,125.5h8.9v17.84L612.25,125.5h11.691L606.173,143.3l18.68,25.492H613.22l-13.341-18.9-4.358,4.419V168.8h-8.9Z" transform="translate(-76.989 -125.496)"/><path class="a" d="M842.607,125.5h8.9v17.84l16.729-17.84h11.691L862.159,143.3,880.838,168.8H869.206l-13.341-18.9-4.358,4.419V168.8h-8.9Z" transform="translate(-76.989 -125.496)"/><path class="a" d="M1164.391,125.5h8.9v17.84l16.73-17.84h11.69L1183.943,143.3l18.679,25.492h-11.633l-13.34-18.9-4.358,4.419V168.8h-8.9Z" transform="translate(-76.989 -125.496)"/><path class="a" d="M1420.377,125.5h8.9v17.84l16.729-17.84H1457.7L1439.929,143.3l18.678,25.492h-11.632l-13.34-18.9-4.358,4.419V168.8h-8.9Z" transform="translate(-76.989 -125.496)"/><path class="a" d="M1672.217,125.5h8.9v17.84l16.729-17.84h11.691L1691.769,143.3l18.679,25.492h-11.633l-13.34-18.9-4.358,4.419V168.8h-8.9Z" transform="translate(-76.989 -125.496)"/><path class="a" d="M1928.2,125.5h8.9v17.84l16.729-17.84h11.69L1947.755,143.3l18.679,25.492H1954.8l-13.34-18.9-4.358,4.419V168.8h-8.9Z" transform="translate(-76.989 -125.496)"/><path class="a" d="M209.637,358.276h8.9v17.84l16.729-17.84h11.691l-17.768,17.807,18.679,25.491H236.235l-13.34-18.9-4.358,4.419v14.481h-8.9Z" transform="translate(-76.989 -125.496)"/><path class="a" d="M465.622,358.276h8.9v17.84l16.729-17.84h11.691l-17.768,17.807,18.68,25.491H492.221l-13.341-18.9-4.358,4.419v14.481h-8.9Z" transform="translate(-76.989 -125.496)"/><path class="a" d="M719.269,358.276h8.9v17.84l16.729-17.84h11.691l-17.768,17.807L757.5,401.574H745.867l-13.34-18.9-4.358,4.419v14.481h-8.9Z" transform="translate(-76.989 -125.496)"/><path class="a" d="M975.254,358.276h8.9v17.84l16.729-17.84h11.691l-17.768,17.807,18.679,25.491h-11.633l-13.34-18.9-4.358,4.419v14.481h-8.9Z" transform="translate(-76.989 -125.496)"/><path class="a" d="M1297.038,358.276h8.9v17.84l16.73-17.84h11.69l-17.768,17.807,18.68,25.491h-11.633l-13.34-18.9-4.359,4.419v14.481h-8.9Z" transform="translate(-76.989 -125.496)"/><path class="a" d="M1553.023,358.276h8.9v17.84l16.729-17.84h11.691l-17.768,17.807,18.679,25.491h-11.633l-13.34-18.9-4.358,4.419v14.481h-8.9Z" transform="translate(-76.989 -125.496)"/><path class="a" d="M1804.864,358.276h8.9v17.84l16.728-17.84h11.692l-17.769,17.807,18.68,25.491h-11.633l-13.341-18.9-4.357,4.419v14.481h-8.9Z" transform="translate(-76.989 -125.496)"/><path class="a" d="M2060.85,358.276h8.9v17.84l16.729-17.84h11.691L2080.4,376.083l18.679,25.491h-11.633l-13.341-18.9-4.357,4.419v14.481h-8.9Z" transform="translate(-76.989 -125.496)"/><path class="a" d="M76.989,593.907h8.9v17.84l16.729-17.84H114.31L96.542,611.715l18.679,25.491H103.588l-13.34-18.9-4.358,4.419v14.482h-8.9Z" transform="translate(-76.989 -125.496)"/><path class="a" d="M332.975,593.907h8.9v17.84l16.729-17.84H370.3l-17.768,17.808,18.68,25.491H359.574l-13.341-18.9-4.358,4.419v14.482h-8.9Z" transform="translate(-76.989 -125.496)"/><path class="a" d="M586.621,593.907h8.9v17.84l16.729-17.84h11.691l-17.768,17.808,18.68,25.491H613.22l-13.341-18.9-4.358,4.419v14.482h-8.9Z" transform="translate(-76.989 -125.496)"/><path class="a" d="M842.607,593.907h8.9v17.84l16.729-17.84h11.691l-17.768,17.808,18.679,25.491H869.206l-13.341-18.9-4.358,4.419v14.482h-8.9Z" transform="translate(-76.989 -125.496)"/><path class="a" d="M1164.391,593.907h8.9v17.84l16.729-17.84h11.691l-17.768,17.808,18.679,25.491h-11.633l-13.341-18.9-4.357,4.419v14.482h-8.9Z" transform="translate(-76.989 -125.496)"/><path class="a" d="M1420.377,593.907h8.9v17.84l16.729-17.84H1457.7l-17.768,17.808,18.678,25.491h-11.632l-13.34-18.9-4.358,4.419v14.482h-8.9Z" transform="translate(-76.989 -125.496)"/><path class="a" d="M1672.217,593.907h8.9v17.84l16.729-17.84h11.691l-17.768,17.808,18.679,25.491h-11.633l-13.34-18.9-4.358,4.419v14.482h-8.9Z" transform="translate(-76.989 -125.496)"/><path class="a" d="M1928.2,593.907h8.9v17.84l16.729-17.84h11.69l-17.768,17.808,18.68,25.491H1954.8l-13.34-18.9-4.358,4.419v14.482h-8.9Z" transform="translate(-76.989 -125.496)"/><path class="a" d="M209.637,821.413h8.9v17.84l16.729-17.84h11.691L229.189,839.22l18.679,25.492H236.235l-13.34-18.9-4.358,4.419v14.482h-8.9Z" transform="translate(-76.989 -125.496)"/><path class="a" d="M465.622,821.413h8.9v17.84l16.729-17.84h11.691L485.174,839.22l18.68,25.492H492.221l-13.341-18.9-4.358,4.419v14.482h-8.9Z" transform="translate(-76.989 -125.496)"/><path class="a" d="M719.269,821.413h8.9v17.84l16.729-17.84h11.691L738.821,839.22,757.5,864.712H745.867l-13.34-18.9-4.358,4.419v14.482h-8.9Z" transform="translate(-76.989 -125.496)"/><path class="a" d="M975.254,821.413h8.9v17.84l16.73-17.84h11.69L994.807,839.22l18.678,25.492h-11.632l-13.34-18.9-4.359,4.419v14.482h-8.9Z" transform="translate(-76.989 -125.496)"/><path class="a" d="M1297.038,821.413h8.9v17.84l16.729-17.84h11.691L1316.59,839.22l18.68,25.492h-11.633l-13.341-18.9-4.358,4.419v14.482h-8.9Z" transform="translate(-76.989 -125.496)"/><path class="a" d="M1553.023,821.413h8.9v17.84l16.729-17.84h11.691l-17.768,17.807,18.679,25.492h-11.633l-13.34-18.9-4.358,4.419v14.482h-8.9Z" transform="translate(-76.989 -125.496)"/><path class="a" d="M1804.864,821.413h8.9v17.84l16.728-17.84h11.692l-17.769,17.807,18.68,25.492h-11.633l-13.341-18.9-4.357,4.419v14.482h-8.9Z" transform="translate(-76.989 -125.496)"/><path class="a" d="M2060.85,821.413h8.9v17.84l16.729-17.84h11.691L2080.4,839.22l18.68,25.492h-11.633l-13.341-18.9-4.357,4.419v14.482h-8.9Z" transform="translate(-76.989 -125.496)"/><path class="a" d="M76.989,1061.107h8.9v17.84l16.729-17.84H114.31l-17.768,17.807,18.679,25.491H103.588l-13.34-18.9-4.358,4.418v14.482h-8.9Z" transform="translate(-76.989 -125.496)"/><path class="a" d="M332.975,1061.107h8.9v17.84l16.729-17.84H370.3l-17.768,17.807,18.679,25.491H359.573l-13.34-18.9-4.358,4.418v14.482h-8.9Z" transform="translate(-76.989 -125.496)"/><path class="a" d="M586.621,1061.107h8.9v17.84l16.729-17.84h11.691l-17.768,17.807,18.68,25.491H613.22l-13.341-18.9-4.358,4.418v14.482h-8.9Z" transform="translate(-76.989 -125.496)"/><path class="a" d="M842.606,1061.107h8.9v17.84l16.729-17.84h11.691l-17.768,17.807,18.679,25.491H869.205l-13.34-18.9-4.358,4.418v14.482h-8.9Z" transform="translate(-76.989 -125.496)"/><path class="a" d="M1164.391,1061.107h8.9v17.84l16.729-17.84h11.691l-17.769,17.807,18.68,25.491h-11.633l-13.341-18.9-4.357,4.418v14.482h-8.9Z" transform="translate(-76.989 -125.496)"/><path class="a" d="M1420.376,1061.107h8.9v17.84l16.73-17.84h11.69l-17.767,17.807,18.678,25.491h-11.632l-13.34-18.9-4.359,4.418v14.482h-8.9Z" transform="translate(-76.989 -125.496)"/><path class="a" d="M1672.217,1061.107h8.9v17.84l16.729-17.84h11.691l-17.768,17.807,18.679,25.491h-11.633l-13.34-18.9-4.358,4.418v14.482h-8.9Z" transform="translate(-76.989 -125.496)"/><path class="a" d="M1928.2,1061.107h8.9v17.84l16.728-17.84h11.691l-17.768,17.807,18.68,25.491H1954.8l-13.341-18.9-4.357,4.418v14.482h-8.9Z" transform="translate(-76.989 -125.496)"/><path class="a" d="M209.636,1292.675h8.9v17.841l16.729-17.841h11.691l-17.769,17.808,18.68,25.491H236.235l-13.34-18.9-4.358,4.419v14.482h-8.9Z" transform="translate(-76.989 -125.496)"/><path class="a" d="M465.622,1292.675h8.9v17.841l16.729-17.841h11.691l-17.768,17.808,18.68,25.491H492.221l-13.341-18.9-4.358,4.419v14.482h-8.9Z" transform="translate(-76.989 -125.496)"/><path class="a" d="M719.269,1292.675h8.9v17.841l16.729-17.841h11.691l-17.768,17.808,18.679,25.491H745.867l-13.34-18.9-4.358,4.419v14.482h-8.9Z" transform="translate(-76.989 -125.496)"/><path class="a" d="M975.254,1292.675h8.9v17.841l16.729-17.841h11.691l-17.768,17.808,18.679,25.491h-11.632l-13.341-18.9-4.358,4.419v14.482h-8.9Z" transform="translate(-76.989 -125.496)"/><path class="a" d="M1297.038,1292.675h8.9v17.841l16.729-17.841h11.691l-17.768,17.808,18.68,25.491h-11.633l-13.341-18.9-4.358,4.419v14.482h-8.9Z" transform="translate(-76.989 -125.496)"/><path class="a" d="M1553.023,1292.675h8.9v17.841l16.729-17.841h11.691l-17.768,17.808,18.679,25.491h-11.633l-13.34-18.9-4.358,4.419v14.482h-8.9Z" transform="translate(-76.989 -125.496)"/><path class="a" d="M1804.863,1292.675h8.9v17.841l16.729-17.841h11.691l-17.768,17.808,18.68,25.491h-11.633l-13.341-18.9-4.358,4.419v14.482h-8.9Z" transform="translate(-76.989 -125.496)"/><path class="a" d="M2060.85,1292.675h8.9v17.841l16.729-17.841h11.691l-17.769,17.808,18.68,25.491h-11.633l-13.341-18.9-4.357,4.419v14.482h-8.9Z" transform="translate(-76.989 -125.496)"/><path class="a" d="M76.989,1528.306h8.9v17.841l16.729-17.841H114.31l-17.768,17.807,18.679,25.492H103.588l-13.34-18.9-4.358,4.419v14.482h-8.9Z" transform="translate(-76.989 -125.496)"/><path class="a" d="M332.975,1528.306h8.9v17.841l16.729-17.841H370.3l-17.768,17.807,18.68,25.492H359.574l-13.341-18.9-4.358,4.419v14.482h-8.9Z" transform="translate(-76.989 -125.496)"/><path class="a" d="M586.621,1528.306h8.9v17.841l16.729-17.841h11.691l-17.768,17.807,18.68,25.492H613.22l-13.341-18.9-4.358,4.419v14.482h-8.9Z" transform="translate(-76.989 -125.496)"/><path class="a" d="M842.607,1528.306h8.9v17.841l16.729-17.841h11.691l-17.768,17.807,18.679,25.492H869.206l-13.341-18.9-4.358,4.419v14.482h-8.9Z" transform="translate(-76.989 -125.496)"/><path class="a" d="M1164.391,1528.306h8.9v17.841l16.729-17.841h11.691l-17.768,17.807,18.679,25.492h-11.633l-13.341-18.9-4.357,4.419v14.482h-8.9Z" transform="translate(-76.989 -125.496)"/><path class="a" d="M1420.377,1528.306h8.9v17.841l16.729-17.841H1457.7l-17.768,17.807,18.678,25.492h-11.632l-13.34-18.9-4.358,4.419v14.482h-8.9Z" transform="translate(-76.989 -125.496)"/><path class="a" d="M1672.217,1528.306h8.9v17.841l16.729-17.841h11.691l-17.768,17.807,18.679,25.492h-11.633l-13.34-18.9-4.358,4.419v14.482h-8.9Z" transform="translate(-76.989 -125.496)"/><path class="a" d="M1928.2,1528.306h8.9v17.841l16.729-17.841h11.69l-17.768,17.807,18.68,25.492H1954.8l-13.34-18.9-4.358,4.419v14.482h-8.9Z" transform="translate(-76.989 -125.496)"/><path class="a" d="M209.636,1759.874h8.9v17.841l16.729-17.841h11.691l-17.769,17.808,18.68,25.491H236.235l-13.34-18.9-4.358,4.419v14.481h-8.9Z" transform="translate(-76.989 -125.496)"/><path class="a" d="M465.622,1759.874h8.9v17.841l16.729-17.841h11.691l-17.768,17.808,18.68,25.491H492.221l-13.341-18.9-4.358,4.419v14.481h-8.9Z" transform="translate(-76.989 -125.496)"/><path class="a" d="M719.269,1759.874h8.9v17.841l16.729-17.841h11.691l-17.768,17.808,18.679,25.491H745.867l-13.34-18.9-4.358,4.419v14.481h-8.9Z" transform="translate(-76.989 -125.496)"/><path class="a" d="M975.254,1759.874h8.9v17.841l16.73-17.841h11.69l-17.767,17.808,18.678,25.491h-11.632l-13.34-18.9-4.359,4.419v14.481h-8.9Z" transform="translate(-76.989 -125.496)"/><path class="a" d="M1297.038,1759.874h8.9v17.841l16.729-17.841h11.691l-17.768,17.808,18.68,25.491h-11.633l-13.341-18.9-4.358,4.419v14.481h-8.9Z" transform="translate(-76.989 -125.496)"/><path class="a" d="M1553.023,1759.874h8.9v17.841l16.729-17.841h11.691l-17.768,17.808,18.679,25.491h-11.633l-13.34-18.9-4.358,4.419v14.481h-8.9Z" transform="translate(-76.989 -125.496)"/><path class="a" d="M1804.863,1759.874h8.9v17.841l16.729-17.841h11.691l-17.768,17.808,18.68,25.491h-11.633l-13.341-18.9-4.358,4.419v14.481h-8.9Z" transform="translate(-76.989 -125.496)"/><path class="a" d="M2060.85,1759.874h8.9v17.841l16.729-17.841h11.691l-17.769,17.808,18.68,25.491h-11.633l-13.341-18.9-4.357,4.419v14.481h-8.9Z" transform="translate(-76.989 -125.496)"/></svg>