<?xml version="1.0" encoding="UTF-8"?>
<svg width="1796px" height="227px" viewBox="0 0 1796 227" xmlns="http://www.w3.org/2000/svg" xmlns:xlink="http://www.w3.org/1999/xlink" version="1.1">
 <!-- Generated by Pixelmator Pro 1.3 -->
 <path id="path" d="M1605.15 150.5 C1605.15 209.6 1655.25 226.4 1703.55 226.4 1746.75 226.4 1795.65 210.8 1795.65 156.2 1795.65 112.4 1747.95 104.3 1731.15 101.3 L1678.65 92.3 C1652.25 87.8 1643.55 77.3 1643.55 64.1 1643.55 38.9 1669.95 29 1693.35 29 1744.65 29 1754.25 51.8 1756.95 68.6 L1788.75 68.6 C1785.75 17 1740.45 1.4 1697.55 1.4 1642.65 1.4 1611.75 27.5 1611.75 66.5 1611.75 108.2 1649.85 118.4 1675.35 122.6 L1723.95 130.7 C1748.55 134.9 1763.85 143 1763.85 162.5 1763.85 185.9 1739.85 198.8 1705.95 198.8 1673.55 198.8 1637.55 188.9 1636.95 150.5 Z M1381.95 221 L1413.75 221 1413.75 130.1 1496.85 130.1 C1523.25 130.1 1536.15 141.8 1538.25 180.2 1539.75 206 1539.75 215 1544.85 221 L1578.45 221 C1571.25 212.6 1570.05 202.7 1568.25 162.8 1567.05 137.6 1555.95 119.9 1537.05 117.2 L1537.05 116.6 C1560.45 109.1 1573.05 89.9 1573.05 63.8 1573.05 36.5 1557.45 6.8 1514.55 6.8 L1381.95 6.8 Z M1413.75 102.5 L1413.75 34.4 1503.45 34.4 C1528.95 34.4 1541.25 48.2 1541.25 68.6 1541.25 83.6 1533.75 102.5 1502.55 102.5 Z M1154.55 221 L1329.75 221 1329.75 193.4 1186.35 193.4 1186.35 124.1 1322.55 124.1 1322.55 96.5 1186.35 96.5 1186.35 34.4 1326.75 34.4 1326.75 6.8 1154.55 6.8 Z M951.75 221 L1113.75 221 1113.75 193.4 983.55 193.4 983.55 6.8 951.75 6.8 Z M799.35 221 L831.15 221 831.15 34.4 912.15 34.4 912.15 6.8 718.35 6.8 718.35 34.4 799.35 34.4 Z M507.75 150.5 C507.75 209.6 557.85 226.4 606.15 226.4 649.35 226.4 698.25 210.8 698.25 156.2 698.25 112.4 650.55 104.3 633.75 101.3 L581.25 92.3 C554.85 87.8 546.15 77.3 546.15 64.1 546.15 38.9 572.55 29 595.95 29 647.25 29 656.85 51.8 659.55 68.6 L691.35 68.6 C688.35 17 643.05 1.4 600.15 1.4 545.25 1.4 514.35 27.5 514.35 66.5 514.35 108.2 552.45 118.4 577.95 122.6 L626.55 130.7 C651.15 134.9 666.45 143 666.45 162.5 666.45 185.9 642.45 198.8 608.55 198.8 576.15 198.8 540.15 188.9 539.55 150.5 Z M271.65 140 C271.65 197.3 303.45 226.4 368.55 226.4 433.65 226.4 465.45 197.3 465.45 140 L465.45 6.8 433.65 6.8 433.65 143.9 C433.65 182.6 407.85 198.8 368.55 198.8 329.25 198.8 303.45 182.6 303.45 143.9 L303.45 6.8 271.65 6.8 Z M179.25 221 L211.05 221 211.05 6.8 179.25 6.8 179.25 92.6 33.45 92.6 33.45 6.8 1.65 6.8 1.65 221 33.45 221 33.45 120.2 179.25 120.2 Z" fill="#ffffff" fill-opacity="1" stroke="none"/>
</svg>
