<?xml version="1.0" encoding="UTF-8"?>
<svg width="1794px" height="227px" viewBox="0 0 1794 227" xmlns="http://www.w3.org/2000/svg" xmlns:xlink="http://www.w3.org/1999/xlink" version="1.1">
 <!-- Generated by Pixelmator Pro 1.3 -->
 <path id="path" d="M1603.15 150.5 C1603.15 209.6 1653.25 226.4 1701.55 226.4 1744.75 226.4 1793.65 210.8 1793.65 156.2 1793.65 112.4 1745.95 104.3 1729.15 101.3 L1676.65 92.3 C1650.25 87.8 1641.55 77.3 1641.55 64.1 1641.55 38.9 1667.95 29 1691.35 29 1742.65 29 1752.25 51.8 1754.95 68.6 L1786.75 68.6 C1783.75 17 1738.45 1.4 1695.55 1.4 1640.65 1.4 1609.75 27.5 1609.75 66.5 1609.75 108.2 1647.85 118.4 1673.35 122.6 L1721.95 130.7 C1746.55 134.9 1761.85 143 1761.85 162.5 1761.85 185.9 1737.85 198.8 1703.95 198.8 1671.55 198.8 1635.55 188.9 1634.95 150.5 Z M1388.05 150.5 C1388.05 209.6 1438.15 226.4 1486.45 226.4 1529.65 226.4 1578.55 210.8 1578.55 156.2 1578.55 112.4 1530.85 104.3 1514.05 101.3 L1461.55 92.3 C1435.15 87.8 1426.45 77.3 1426.45 64.1 1426.45 38.9 1452.85 29 1476.25 29 1527.55 29 1537.15 51.8 1539.85 68.6 L1571.65 68.6 C1568.65 17 1523.35 1.4 1480.45 1.4 1425.55 1.4 1394.65 27.5 1394.65 66.5 1394.65 108.2 1432.75 118.4 1458.25 122.6 L1506.85 130.7 C1531.45 134.9 1546.75 143 1546.75 162.5 1546.75 185.9 1522.75 198.8 1488.85 198.8 1456.45 198.8 1420.45 188.9 1419.85 150.5 Z M1180.15 221 L1355.35 221 1355.35 193.4 1211.95 193.4 1211.95 124.1 1348.15 124.1 1348.15 96.5 1211.95 96.5 1211.95 34.4 1352.35 34.4 1352.35 6.8 1180.15 6.8 Z M977.35 221 L1139.35 221 1139.35 193.4 1009.15 193.4 1009.15 6.8 977.35 6.8 Z M883.15 221 L914.95 221 914.95 6.8 883.15 6.8 883.15 92.6 737.35 92.6 737.35 6.8 705.55 6.8 705.55 221 737.35 221 737.35 120.2 883.15 120.2 Z M554.35 221 L586.15 221 586.15 34.4 667.15 34.4 667.15 6.8 473.35 6.8 473.35 34.4 554.35 34.4 Z M241.75 140 C241.75 197.3 273.55 226.4 338.65 226.4 403.75 226.4 435.55 197.3 435.55 140 L435.55 6.8 403.75 6.8 403.75 143.9 C403.75 182.6 377.95 198.8 338.65 198.8 299.35 198.8 273.55 182.6 273.55 143.9 L273.55 6.8 241.75 6.8 Z M0.85 221 L32.65 221 32.65 130.1 115.75 130.1 C142.15 130.1 155.05 141.8 157.15 180.2 158.65 206 158.65 215 163.75 221 L197.35 221 C190.15 212.6 188.95 202.7 187.15 162.8 185.95 137.6 174.85 119.9 155.95 117.2 L155.95 116.6 C179.35 109.1 191.95 89.9 191.95 63.8 191.95 36.5 176.35 6.8 133.45 6.8 L0.85 6.8 Z M32.65 102.5 L32.65 34.4 122.35 34.4 C147.85 34.4 160.15 48.2 160.15 68.6 160.15 83.6 152.65 102.5 121.45 102.5 Z" fill="#ffffff" fill-opacity="1" stroke="none"/>
</svg>
