<svg xmlns="http://www.w3.org/2000/svg" width="168" height="45" viewBox="0 0 168 45">
  <path fill="none" stroke="#000" stroke-linecap="round" stroke-linejoin="round" stroke-width="5" d="M0,33.3060176 C25.7031376,11.1020059 35.0406329,0 28.012486,0 C12.7757478,0 -1.20994403,41.7501364 7.23943641,41.7501364 C11.1632904,41.7501364 24.6826571,27.8334242 47.7975364,0 L28.012486,41.7501364 C43.1995761,13.9167121 53.9114513,0 60.1481117,0 C70.9473931,0 36.9872441,41.7501364 46.9453049,41.7501364 C50.8611647,41.7501364 63.0342937,27.8334242 83.4646918,0 C68.3295006,28 64.7719773,42 72.7921219,42 C80.9728755,42 89.8269516,28 99.3543504,0 C92.8687109,16.3698343 92.1321094,24.5547515 97.1445459,24.5547515 C100.533755,24.5547515 106.694982,16.3698343 115.628227,0 C101.125665,27.8334242 97.7669666,41.7501364 105.552132,41.7501364 C111.609931,41.7501364 151.425112,0 139.067832,0 C125.077706,0 113.388905,42.4319378 123.543492,41.7501364 C133.981718,41.0492906 146.300451,6.47577167 168,0 C153.661308,12.0215687 157.057586,15.3448385 158.521939,24.5547515 C159.953654,33.5593956 153.304074,41.7501364 148.91426,41.7501364 C145.239364,41.7501364 143.401915,39.3981925 143.401915,34.6943047" transform="translate(0 3)"/>
</svg>
