<svg xmlns="http://www.w3.org/2000/svg" width="168" height="45" viewBox="0 0 168 45">
  <path fill="none" stroke="#000" stroke-linecap="round" stroke-linejoin="round" stroke-width="5" d="M18.5025777,-0.000237082757 L0,41.0489156 C13.0265232,13.6828138 24.20336,0.0168722638 33.5305104,0.0510909569 C41.0813631,0.0786649584 13.6350283,37.7960359 18.5025777,40.9978247 C25.5859379,40.9978247 37.025829,27.3489134 52.8222511,0.0510909569 C38.8556866,27.3204478 36.0289887,40.9693591 44.3421573,40.9978247 C59.2629074,41.0489156 82.9225458,0.0671971151 77.8561818,0.0510909569 C61.7849762,-0.000237082757 49,40.7560855 61.7849762,40.9978247 C66.8346211,41.0933037 78.2402449,27.4272831 96.0018475,-0.000237082757 C82.2529624,27.3318041 79.4285041,40.9978247 87.5284728,40.9978247 C96.4395477,40.9978247 104.542057,27.3489134 111.836001,0.0510909569 C110.615286,18.683697 113.261628,28 119.775024,28 C126.898677,28 148.846956,-0.000237082757 141.744708,-0.000237082757 C123.947475,-0.000237082757 111.724231,41.0489156 119.775024,41.0489156 C131.635167,41.0489156 146.846956,10.1795727 168,0.0510909569 C164.128678,6.20296581 159.464229,8.8060646 162.695309,24.2792697 C164.395172,32.419686 157.98462,41.1150605 151.700711,41.0489156 C148.464874,41.014855 146.846956,38.7786234 146.846956,34.3402209" transform="translate(1 3)"/>
</svg>
